<svg xmlns="http://www.w3.org/2000/svg" xmlns:xlink="http://www.w3.org/1999/xlink" width="146" height="167" fill="none" xmlns:v="https://vecta.io/nano"><g fill-rule="evenodd"><path d="M52.025 40.687c.657-1.426 1.426-2.533 1.934-3.117.01 1.377-.202 2.613-.531 3.687 1.011.488 2.063 1.171 3.067 2.114-.774-.023-2.109-.211-3.602-.697-.688 1.517-1.558 2.565-2.128 3.053.039-1.277.307-2.501.685-3.604-1.067-.473-2.147-1.106-3.111-1.945.745-.087 2.105-.014 3.686.511z" fill="url(#C)"/><path d="M46.833 26.405c.437-.949.949-1.686 1.288-2.075.007.917-.135 1.739-.353 2.454.673.325 1.373.779 2.041 1.407-.515-.016-1.404-.14-2.397-.464-.458 1.01-1.037 1.707-1.416 2.032.026-.85.204-1.664.456-2.399-.71-.315-1.429-.736-2.071-1.295.496-.058 1.401-.01 2.453.34z" fill="url(#D)"/><path d="M32.783 12.207c.657-1.426 1.426-2.533 1.934-3.117a12.26 12.26 0 0 1-.531 3.687 12.26 12.26 0 0 1 3.067 2.114c-.774-.023-2.109-.211-3.602-.697-.688 1.517-1.558 2.565-2.128 3.052.039-1.277.307-2.501.685-3.604-1.067-.473-2.147-1.107-3.111-1.945.745-.087 2.105-.014 3.686.511z" fill="url(#E)"/><path d="M30.556 44.172c.966-2.098 2.098-3.727 2.846-4.586.015 2.026-.298 3.844-.781 5.424 1.488.718 3.034 1.723 4.512 3.11-1.139-.034-3.103-.31-5.299-1.025-1.012 2.232-2.292 3.773-3.131 4.491.057-1.879.452-3.679 1.007-5.303-1.569-.695-3.159-1.628-4.577-2.862 1.096-.129 3.097-.021 5.423.752z" fill="url(#F)"/></g><circle cx="36.369" cy="29.816" r=".847" transform="rotate(21.387 36.369 29.816)" fill="#2f235a"/><circle cx="57.33" cy="19.172" r=".847" transform="rotate(21.387 57.33 19.172)" fill="#fe9076"/><circle cx="17.095" cy="23.796" r=".847" transform="rotate(21.387 17.095 23.796)" fill="#ffa400"/><circle cx="35.272" cy="57.882" r=".847" transform="rotate(21.387 35.272 57.882)" fill="#23bb86"/><g stroke-width=".737" stroke-linecap="round"><path d="M56.687 15.126c-.824-3.145-3.796-10.339-9.098-13.951" stroke="#fe9076"/><path d="M14.596 20.381c-2.049-2.524-7.728-7.848-14.048-8.947" stroke="#ffa400"/><path d="M31.67 59.112c-1.816.662-6.388 2.773-10.146 5.916" stroke="#23bb86"/></g><g fill-rule="evenodd"><path d="M93.975 40.687c-.657-1.426-1.426-2.533-1.934-3.117-.01 1.377.202 2.613.531 3.687a12.26 12.26 0 0 0-3.067 2.114c.774-.023 2.109-.211 3.602-.697.688 1.517 1.558 2.565 2.128 3.053-.039-1.277-.307-2.501-.685-3.604 1.067-.473 2.147-1.106 3.111-1.945-.745-.087-2.105-.014-3.686.511z" fill="url(#G)"/><path d="M99.167 26.405c-.437-.949-.949-1.686-1.288-2.075a8.16 8.16 0 0 0 .354 2.454 8.16 8.16 0 0 0-2.041 1.407c.515-.016 1.404-.14 2.397-.464.458 1.01 1.037 1.707 1.416 2.032-.025-.85-.204-1.664-.456-2.399.71-.315 1.43-.736 2.071-1.295-.496-.058-1.401-.01-2.453.34z" fill="url(#H)"/><path d="M113.217 12.207c-.656-1.426-1.426-2.533-1.934-3.117-.01 1.377.202 2.613.531 3.687a12.28 12.28 0 0 0-3.067 2.114c.774-.023 2.11-.211 3.602-.697.688 1.517 1.558 2.565 2.128 3.052-.039-1.277-.307-2.501-.685-3.604 1.067-.473 2.148-1.107 3.111-1.945-.745-.087-2.105-.014-3.686.511z" fill="url(#I)"/><path d="M115.444 44.172c-.967-2.098-2.098-3.727-2.846-4.586a18.01 18.01 0 0 0 .781 5.424c-1.488.718-3.034 1.723-4.512 3.11 1.139-.034 3.103-.31 5.299-1.025 1.013 2.232 2.292 3.773 3.131 4.491-.057-1.879-.452-3.679-1.007-5.303 1.569-.695 3.159-1.628 4.576-2.862-1.096-.129-3.096-.021-5.422.752z" fill="url(#J)"/></g><circle r=".847" transform="matrix(-.9311 .364658 .364658 .9311 109.631 29.8161)" fill="#2f235a"/><circle r=".847" transform="matrix(-.9311 .364658 .364658 .9311 88.6705 19.1722)" fill="#fe9076"/><circle r=".847" transform="matrix(-.9311 .364658 .364658 .9311 128.906 23.7964)" fill="#ffa400"/><circle r=".847" transform="matrix(-.9311 .364658 .364658 .9311 110.728 57.8818)" fill="#23bb86"/><g stroke-width=".737" stroke-linecap="round"><path d="M89.314 15.126c.824-3.145 3.796-10.339 9.098-13.951" stroke="#fe9076"/><path d="M131.404 20.381c2.049-2.524 7.728-7.848 14.048-8.947" stroke="#ffa400"/><path d="M114.33 59.112c1.816.662 6.388 2.773 10.146 5.916" stroke="#23bb86"/></g><path fill="url(#K)" d="M27.535 104.439h89.851v62.11H27.535z"/><mask id="A" maskUnits="userSpaceOnUse" x="27" y="104" width="91" height="63" mask-type="alpha"><path fill="#c4c4c4" d="M27.535 104.439h89.851v62.11H27.535z"/></mask><g mask="url(#A)"><path d="M31.787 102.858h61.182L79.14 126.869H17.958l13.829-24.011z" fill="#000" fill-opacity=".07"/><path fill="url(#L)" d="M88.637 104.439h89.851v62.11H88.637z"/></g><path d="M27.456 104.439h61.182l-11.818 19.723H15.637l11.819-19.723z" fill="url(#M)"/><mask id="B" maskUnits="userSpaceOnUse" x="88" y="104" width="30" height="63" mask-type="alpha"><path fill="#c4c4c4" d="M88.638 104.439h28.748v62.11H88.638z"/></mask><g mask="url(#B)"><path d="M113.886 104.336H85.093l13.529 22.707h28.793l-13.529-22.707z" fill="#000" fill-opacity=".07"/></g><path d="M117.431 104.439H88.638l11.818 19.723h28.793l-11.818-19.723z" fill="url(#N)"/><circle cx="59.386" cy="87.241" r="8.491" fill="url(#O)"/><circle cx="85.786" cy="75.891" r="8.205" fill="url(#P)"/><circle cx="67.877" cy="54.985" r="6.616" fill="url(#Q)"/><g fill="#ffa800"><circle cx="90.288" cy="53.987" r="1.65" fill-opacity=".23"/><circle cx="79.232" cy="91.491" r="1.65" fill-opacity=".23"/><circle cx="52.138" cy="66.037" r="1.65" fill-opacity=".23"/></g><path d="M117.598 104.733H27.464L13.622 19.385H134.22l-16.622 85.348z" fill="url(#R)"/><defs><linearGradient id="C" x1="53.709" y1="38.474" x2="50.71" y2="46.131" xlink:href="#S"><stop stop-color="#ffe89e"/><stop offset="1" stop-color="#ffbf1a"/></linearGradient><linearGradient id="D" x1="47.955" y1="24.931" x2="45.958" y2="30.028" xlink:href="#S"><stop stop-color="#ffe89e"/><stop offset="1" stop-color="#ffbf1a"/></linearGradient><linearGradient id="E" x1="34.467" y1="9.993" x2="31.468" y2="17.651" xlink:href="#S"><stop stop-color="#ffe89e"/><stop offset="1" stop-color="#ffbf1a"/></linearGradient><linearGradient id="F" x1="33.035" y1="40.915" x2="28.622" y2="52.182" xlink:href="#S"><stop stop-color="#ffe89e"/><stop offset="1" stop-color="#ffbf1a"/></linearGradient><linearGradient id="G" x1="92.291" y1="38.474" x2="95.29" y2="46.131" xlink:href="#S"><stop stop-color="#ffe89e"/><stop offset="1" stop-color="#ffbf1a"/></linearGradient><linearGradient id="H" x1="98.046" y1="24.931" x2="100.042" y2="30.028" xlink:href="#S"><stop stop-color="#ffe89e"/><stop offset="1" stop-color="#ffbf1a"/></linearGradient><linearGradient id="I" x1="111.533" y1="9.993" x2="114.532" y2="17.651" xlink:href="#S"><stop stop-color="#ffe89e"/><stop offset="1" stop-color="#ffbf1a"/></linearGradient><linearGradient id="J" x1="112.965" y1="40.915" x2="117.378" y2="52.182" xlink:href="#S"><stop stop-color="#ffe89e"/><stop offset="1" stop-color="#ffbf1a"/></linearGradient><linearGradient id="K" x1="57.549" y1="92.94" x2="21.739" y2="191.572" xlink:href="#S"><stop stop-color="#ffd481"/><stop offset="1" stop-color="#fa620c"/></linearGradient><linearGradient id="L" x1="42.865" y1="100.5" x2="151.545" y2="216.639" xlink:href="#S"><stop stop-color="#ffd481"/><stop offset=".833" stop-color="#fa620c"/></linearGradient><linearGradient id="M" x1="28.715" y1="97.39" x2="25.807" y2="139.413" xlink:href="#S"><stop stop-color="#ffd481"/><stop offset="1" stop-color="#fa620c"/></linearGradient><linearGradient id="N" x1="121.974" y1="97.39" x2="127.145" y2="138.971" xlink:href="#S"><stop stop-color="#ffd481"/><stop offset="1" stop-color="#fa620c"/></linearGradient><linearGradient id="O" x1="60.029" y1="75.948" x2="58.414" y2="98.867" xlink:href="#S"><stop stop-color="#ff9f81"/><stop offset="1" stop-color="#f53838"/></linearGradient><linearGradient id="P" x1="86.408" y1="64.979" x2="84.847" y2="87.125" xlink:href="#S"><stop stop-color="#ff9f81"/><stop offset="1" stop-color="#f53838"/></linearGradient><linearGradient id="Q" x1="68.378" y1="46.185" x2="67.119" y2="64.044" xlink:href="#S"><stop stop-color="#ff9f81"/><stop offset="1" stop-color="#f53838"/></linearGradient><linearGradient id="R" x1="72.93" y1="19.385" x2="72.93" y2="200.709" xlink:href="#S"><stop stop-color="#fff" stop-opacity="0"/><stop offset="1" stop-color="#fe9277"/></linearGradient><linearGradient id="S" gradientUnits="userSpaceOnUse"/></defs></svg>